<?xml version="1.0" encoding="utf-8"?>
<!-- Generator: Adobe Illustrator 24.0.0, SVG Export Plug-In . SVG Version: 6.00 Build 0)  -->
<svg version="1.1" id="Capa_1" xmlns="http://www.w3.org/2000/svg" xmlns:xlink="http://www.w3.org/1999/xlink" x="0px" y="0px"
	 viewBox="0 0 512 512" style="enable-background:new 0 0 512 512;" xml:space="preserve">
<style type="text/css">
	.st0{fill:#FFFFFF;}
</style>
<rect x="73" y="18.7" class="st0" width="378" height="477"/>
<g>
	<path d="M331,93.5V60c0,0,0,0,0,0H301c0,0,0,0,0,0V91c0,0,0,0,0,0H271c0,0,0,0,0,0V60c0,0,0,0,0,0H241c0,0,0,0,0,0V91c0,0,0,0,0,0
		H211c0,0,0,0,0,0V121c0,0,0,0,0,0H241c0,0,0,0,0,0V211c0,0,0,0,0,0H211c0,0,0,0,0,0V241c0,0,0,0,0,0H241c0,0,0,0,0,0V271
		c0,0,0,0,0,0H271c0,0,0,0,0,0V241c0,0,0,0,0,0H301c0,0,0,0,0,0V271c0,0,0,0,0,0H331c0,0,0,0,0,0v-32.5c0,0,0,0,0,0
		c17.4-6.2,30-22.9,30-42.4c0-11.5-4.3-22-11.5-30c0,0,0,0,0-0.1c7.1-8,11.5-18.5,11.5-30C361,116.5,348.5,99.8,331,93.5
		C331,93.6,331,93.6,331,93.5z M271,121l44.5,0c8.1,0,15.1,6.2,15.5,14.3c0.4,8.6-6.5,15.7-15,15.7h-45c0,0,0,0,0,0L271,121
		C271,121,271,121,271,121z M315.5,211H271c0,0,0,0,0,0V181c0,0,0,0,0,0h45c8.5,0,15.4,7.1,15,15.7C330.6,204.8,323.6,211,315.5,211
		z"/>
	<path d="M451,452V0c0,0,0,0,0,0H91.4C74.6,0,61,13.6,61,30.4v451.5c0,16.6,13.5,30.1,30.1,30.1H451c0,0,0,0,0,0V482c0,0,0,0,0,0
		H421c0,0,0,0,0,0V452c0,0,0,0,0,0L451,452C451,452,451,452,451,452z M91,30H121c0,0,0,0,0,0V422c0,0,0,0,0,0H91c0,0,0,0,0,0L91,30
		C91,30,91,30,91,30z M391,482H91c0,0,0,0,0,0V452c0,0,0,0,0,0H391c0,0,0,0,0,0L391,482C391,482,391,482,391,482z M151,422V30
		c0,0,0,0,0,0H421c0,0,0,0,0,0V422c0,0,0,0,0,0L151,422C151,422,151,422,151,422z"/>
	<path d="M211,301H361c0,0,0,0,0,0V331c0,0,0,0,0,0H211c0,0,0,0,0,0L211,301C211,301,211,301,211,301z"/>
	<path d="M211,361H361c0,0,0,0,0,0V391c0,0,0,0,0,0H211c0,0,0,0,0,0L211,361C211,361,211,361,211,361z"/>
</g>
</svg>
